# xmcd CD database file
#
# Track frame offsets:
#	150
#	12360
#	33527
#	50402
#	81192
#	108130
#	134019
#	146136
#	167454
#	191180
#	216471
#	249543
#	261358
#	294202
#
# Disc length: 4059 seconds
#
# Revision: 0
# Processed by: cddbd v1.5.2PL0 Copyright (c) Steve Scherf et al.
# Submitted via: CDex 1.51
#
DISCID=d30fd90e
DTITLE=Jen Kearney - To The Moon
DYEAR=2011
DGENRE=Jazz
TTITLE0=Abandoned
TTITLE1=Pick Yourself Up
TTITLE2=Gentle and Precise
TTITLE3=Grandpa
TTITLE4=Oxen Free
TTITLE5=Warm Bath Eyes
TTITLE6=One In The Same
TTITLE7=Succotash Blues
TTITLE8=Can I Get An Amen
TTITLE9=Let It Itch
TTITLE10=The Year Of The Ox
TTITLE11=Plena de la cebolla
TTITLE12=To The Moon
TTITLE13=Trudge
EXTD=YEAR: 2011
EXTT0=
EXTT1=
EXTT2=
EXTT3=
EXTT4=
EXTT5=
EXTT6=
EXTT7=
EXTT8=
EXTT9=
EXTT10=
EXTT11=
EXTT12=
EXTT13=
PLAYORDER=
